PathFileType	4	(X/Y/Z)	/Users/itak/Documents/Research/Walk-IL/dataset/trc/00378_00012.trc
DataRate	CameraRate	NumFrames	NumMarkers	Units	OrigDataRate	OrigDataStartFrame	OrigNumFrames
100.000000	100.000000	4	54	mm	100.000000	129	346
Frame#	Time	RPSI			LPSI			L3			STRN			T10			C7			CLAV			RBAK			LBAK			LSHO			LUPA			LAEL			LAOL			LWTS			LWPS			LFRA			LIFD			LHPS			LHTS			RSHO			RUPA			RAEL			RAOL			RWTS			RWPS			RFRA			RIFD			RHTS			RHPS			RBHD			LFHD			RFHD			LBHD			RASI			LASI			LKNE			LTHI			LANK			LTIP			LTOE			LMT1			LMT5			LHEE			RKNE			RTHI			RANK			RTIP			RTOE			RMT1			RMT5			RHEE			LHIP			RHIP			*53			
		X1	Y1	Z1	X2	Y2	Z2	X3	Y3	Z3	X4	Y4	Z4	X5	Y5	Z5	X6	Y6	Z6	X7	Y7	Z7	X8	Y8	Z8	X9	Y9	Z9	X10	Y10	Z10	X11	Y11	Z11	X12	Y12	Z12	X13	Y13	Z13	X14	Y14	Z14	X15	Y15	Z15	X16	Y16	Z16	X17	Y17	Z17	X18	Y18	Z18	X19	Y19	Z19	X20	Y20	Z20	X21	Y21	Z21	X22	Y22	Z22	X23	Y23	Z23	X24	Y24	Z24	X25	Y25	Z25	X26	Y26	Z26	X27	Y27	Z27	X28	Y28	Z28	X29	Y29	Z29	X30	Y30	Z30	X31	Y31	Z31	X32	Y32	Z32	X33	Y33	Z33	X34	Y34	Z34	X35	Y35	Z35	X36	Y36	Z36	X37	Y37	Z37	X38	Y38	Z38	X39	Y39	Z39	X40	Y40	Z40	X41	Y41	Z41	X42	Y42	Z42	X43	Y43	Z43	X44	Y44	Z44	X45	Y45	Z45	X46	Y46	Z46	X47	Y47	Z47	X48	Y48	Z48	X49	Y49	Z49	X50	Y50	Z50	X51	Y51	Z51	X52	Y52	Z52	X53	Y53	Z53	X54	Y54	Z54	

130	1.29	-361.8425903320312	961.6664428710938	220.183837890625	-386.4567260742188	939.5485229492188	91.04258728027344	-368.9035949707031	1035.367797851562	150.4664001464844	-145.489990234375	1194.620727539062	119.0810546875	-385.6582641601562	1135.04443359375	139.2960815429688	-363.4036865234375	1385.447875976562	129.5488433837891	-204.8896636962891	1310.9580078125	125.6454391479492	-396.4454040527344	1236.688354492188	195.2982177734375	-383.8471984863281	1349.8623046875	27.01184463500977	-299.9164123535156	1369.436645507812	-27.47960662841797	-321.9019775390625	1250.673461914062	-95.76885223388672	-288.6310424804688	1056.921997070312	-124.9102783203125	-334.5978088378906	1030.182006835938	-57.32318878173828	-177.6175842285156	849.3817138671875	-100.813591003418	-238.0717163085938	833.50634765625	-154.2101593017578	-266.4377746582031	955.0758056640625	-138.6128540039062	-165.1895446777344	670.715576171875	-116.4136123657227	-216.6632080078125	750.316650390625	-152.646728515625	-157.6080322265625	755.7129516601562	-129.4194183349609	-298.9886169433594	1363.285522460938	283.626953125	-313.1118469238281	1298.270629882812	340.5474548339844	-336.5672302246094	1037.38232421875	370.0695495605469	-344.6691589355469	1031.43212890625	274.7874450683594	-217.0718536376953	819.0242309570312	372.041748046875	-280.4210815429688	805.7033081054688	406.8901672363281	-322.3402404785156	970.4745483398438	388.3271179199219	-223.960205078125	647.5447387695312	355.2184143066406	-213.0168609619141	711.6825561523438	388.725830078125	-278.5873718261719	717.6754150390625	400.6399230957031	-324.5335693359375	1572.1337890625	212.9891815185547	-188.4647827148438	1578.705688476562	67.48694610595703	-193.6962280273438	1582.979248046875	190.1668243408203	-336.0764465332031	1564.883178710938	51.23836517333984	-141.1993103027344	960.1641845703125	236.1458587646484	-200.8772888183594	927.8175659179688	-18.69209861755371	-210.8282165527344	441.118408203125	-33.03490829467773	-231.1820068359375	574.5216674804688	-35.16368103027344	-594.9310913085938	207.6402893066406	6.760900020599365	-402.888916015625	308.0860595703125	-26.06404685974121	-474.7110595703125	45.62333679199219	75.42092132568359	-514.9368286132812	109.9294738769531	104.5354232788086	-539.133056640625	94.37480926513672	1.398837447166443	-606.5625610351562	245.8220062255859	60.80418395996094	-125.0758972167969	470.3121337890625	241.056640625	-144.7856903076172	730.7705078125	292.9046325683594	-195.3562927246094	52.17551422119141	201.7462768554688	-116.741569519043	342.7309265136719	217.9731140136719	-28.72414016723633	36.38029861450195	111.9650039672852	-108.676383972168	42.18725204467773	94.00591278076172	-113.9987869262695	41.52081680297852	195.5247497558594	-275.7969360351562	46.12789535522461	161.3378295898438	-319.9377136230469	921.9295654296875	-34.91468811035156	-257.6071166992188	953.228759765625	317.8666687011719	nan	nan	nan	
131	1.3	-350.8413391113281	964.22021484375	219.6121368408203	-374.9393005371094	942.1581420898438	90.36727142333984	-357.7822265625	1037.709838867188	150.2585754394531	-133.9242401123047	1197.445434570312	118.861701965332	-374.5904846191406	1137.610595703125	139.8072814941406	-351.9197082519531	1388.044067382812	129.7780151367188	-193.5160217285156	1313.709350585938	125.3704147338867	-384.7576599121094	1239.364135742188	195.9905090332031	-372.7360229492188	1352.320190429688	27.46773719787598	-289.1188049316406	1371.680419921875	-27.58270645141602	-312.5260620117188	1252.871459960938	-95.34139251708984	-282.2874145507812	1058.748901367188	-123.3865356445312	-328.1199340820312	1032.9228515625	-55.4287109375	-177.8487854003906	846.8927001953125	-97.90058898925781	-238.4530334472656	833.4357299804688	-151.8503570556641	-262.7785339355469	956.0848388671875	-136.9071044921875	-174.1146697998047	667.4216918945312	-112.2709732055664	-220.9123840332031	749.2606811523438	-149.7714691162109	-162.0755767822266	751.8225708007812	-125.6489105224609	-286.9861450195312	1366.261840820312	283.6169128417969	-300.5349731445312	1301.325073242188	340.9562683105469	-321.0732727050781	1040.36279296875	372.6279296875	-331.146240234375	1033.786743164062	277.6484375	-196.8731384277344	824.7614135742188	372.268798828125	-258.7453918457031	809.9979248046875	409.2240600585938	-305.068603515625	973.5977783203125	390.8829040527344	-199.4551239013672	653.0776977539062	356.9300537109375	-189.2621154785156	717.7958984375	389.6535034179688	-254.8065338134766	721.9813842773438	403.4545593261719	-312.1612548828125	1574.9345703125	212.7773284912109	-176.3041839599609	1580.932983398438	67.09017181396484	-181.2551879882812	1585.352905273438	189.7303771972656	-323.9957580566406	1567.62255859375	51.1155891418457	-130.1479949951172	962.2816772460938	237.3232116699219	-188.7247619628906	931.3230590820312	-17.83084106445312	-185.9620666503906	445.9030456542969	-33.41644668579102	-210.1039886474609	578.4852905273438	-35.70880889892578	-566.0015258789062	205.5407257080078	5.932103157043457	-375.6826782226562	309.9034423828125	-26.77360343933105	-438.5077819824219	46.70791625976562	69.10584259033203	-481.2179870605469	108.3690567016602	100.5666275024414	-505.2668151855469	95.23615264892578	-2.886396169662476	-578.8594970703125	241.8323974609375	60.97607421875	-123.4594039916992	470.0304565429688	241.9908905029297	-137.4008636474609	731.1053466796875	293.3948669433594	-195.4540100097656	52.13964462280273	201.7387542724609	-115.9738159179688	342.4190368652344	218.7822265625	-28.77844619750977	36.37761306762695	111.9983673095703	-108.6829681396484	42.18729019165039	94.05585479736328	-114.0178604125977	41.46657180786133	195.5754241943359	-275.8006591796875	46.40533447265625	161.2885284423828	-307.5318298339844	924.93359375	-35.06890487670898	-246.8308410644531	955.0950927734375	318.0661010742188	nan	nan	nan	
132	1.31	-340.0060119628906	966.6063232421875	218.8539733886719	-363.4781494140625	944.7420654296875	89.48347473144531	-346.9220581054688	1039.958862304688	149.9295806884766	-122.477668762207	1200.248168945312	118.7608413696289	-363.7099914550781	1140.107421875	140.2043304443359	-340.5370178222656	1390.549072265625	129.9252319335938	-182.2659759521484	1316.458862304688	125.1319046020508	-373.2256774902344	1241.970092773438	196.5734252929688	-361.6741943359375	1354.705444335938	27.84814453125	-278.3671569824219	1373.8505859375	-27.71874046325684	-303.3211364746094	1255.067016601562	-94.96347808837891	-276.38671875	1060.574951171875	-121.8811264038086	-322.1444702148438	1035.748901367188	-53.59189605712891	-178.2206878662109	844.9461669921875	-94.8389892578125	-238.6497650146484	833.7025756835938	-149.5229644775391	-259.4242553710938	957.2388916015625	-135.2166290283203	-182.7174072265625	665.0935668945312	-107.7513275146484	-224.7783355712891	748.7427978515625	-146.8281707763672	-166.4195861816406	748.6790771484375	-121.5781478881836	-275.2083129882812	1369.187133789062	283.5739440917969	-288.2264404296875	1304.362915039062	341.3079833984375	-305.8067321777344	1043.374877929688	375.0491333007812	-317.6114501953125	1036.09375	280.3783264160156	-176.7406463623047	830.7277221679688	372.4911499023438	-237.0838928222656	814.6030883789062	411.48876953125	-287.9364013671875	976.8263549804688	393.29931640625	-174.7400360107422	658.96533203125	358.9276428222656	-165.5154571533203	724.2984008789062	390.7010803222656	-230.9352722167969	726.6808471679688	406.3462219238281	-299.8176574707031	1577.671142578125	212.5366668701172	-164.1975250244141	1583.033325195312	66.66653442382812	-168.8715972900391	1587.582885742188	189.2653961181641	-311.963134765625	1570.301391601562	50.95354461669922	-119.2925872802734	964.24755859375	238.650634765625	-176.4791107177734	934.908447265625	-16.87460327148438	-161.5797576904297	451.0730285644531	-33.54401397705078	-189.4319915771484	582.7418823242188	-36.15835189819336	-536.2048950195312	202.0554046630859	5.044024467468262	-348.3381958007812	311.3231811523438	-27.30696487426758	-400.925048828125	47.61858749389648	63.35126495361328	-446.4026489257812	106.2063827514648	96.90708923339844	-470.0813598632812	95.3314208984375	-6.896036148071289	-550.542724609375	236.3328247070312	60.99497604370117	-122.0407943725586	469.8083190917969	242.8880767822266	-130.2675170898438	731.331298828125	293.8915405273438	-195.5778350830078	52.09811782836914	201.7022857666016	-115.3636016845703	342.1867980957031	219.5218200683594	-28.83363914489746	36.36288070678711	112.0114593505859	-108.7048187255859	42.1746940612793	94.08576965332031	-114.0392913818359	41.42972946166992	195.6032409667969	-275.8131713867188	46.53246688842773	161.1050262451172	-295.1002197265625	928.0863037109375	-35.31857681274414	-236.2574462890625	956.7447509765625	318.2246704101562	nan	nan	nan	
133	1.32	-329.2988891601562	968.7925415039062	217.9258728027344	-352.0884094238281	947.2298583984375	88.40162658691406	-336.3097229003906	1042.080078125	149.5004425048828	-111.1513748168945	1202.96240234375	118.7853164672852	-352.9381103515625	1142.495849609375	140.4659729003906	-329.2399597167969	1392.925048828125	129.9974365234375	-171.1197967529297	1319.146606445312	124.9391326904297	-361.8255004882812	1244.471313476562	197.0693511962891	-350.6436462402344	1356.975341796875	28.15775489807129	-267.6325988769531	1375.894897460938	-27.87460327148438	-294.2409973144531	1257.225341796875	-94.63504028320312	-270.8739318847656	1062.351440429688	-120.4358978271484	-316.6497192382812	1038.625122070312	-51.85857772827148	-178.6413269042969	843.4901123046875	-91.67337799072266	-238.6010589599609	834.2162475585938	-147.2523651123047	-256.3072509765625	958.4679565429688	-133.5514221191406	-190.8306427001953	663.610107421875	-102.8968811035156	-228.1729736328125	748.6436157226562	-143.8260955810547	-170.5160522460938	746.2084350585938	-117.2483520507812	-263.6232299804688	1372.024780273438	283.5088806152344	-276.1701965332031	1307.350219726562	341.6175537109375	-290.7756042480469	1046.382080078125	377.339111328125	-304.0662841796875	1038.327880859375	282.9591674804688	-156.72314453125	836.8800048828125	372.7044372558594	-215.4678955078125	819.4829711914062	413.6909790039062	-270.9592590332031	980.1295166015625	395.5715637207031	-149.8449249267578	665.1935424804688	361.1648559570312	-141.8341522216797	731.1495971679688	391.8318481445312	-207.0066833496094	731.742431640625	409.3031005859375	-287.5077514648438	1580.301635742188	212.2753601074219	-152.1510009765625	1584.972534179688	66.21833038330078	-156.5550842285156	1589.644165039062	188.7774353027344	-299.9804382324219	1572.863037109375	50.75516510009766	-108.608528137207	966.0303344726562	240.0707702636719	-164.1646118164062	938.493408203125	-15.86152648925781	-137.7051239013672	456.51513671875	-33.40810394287109	-169.1816558837891	587.2007446289062	-36.5109977722168	-505.5420532226562	197.2248382568359	4.092310428619385	-320.8604431152344	312.3036804199219	-27.67192077636719	-362.1317138671875	48.38107681274414	58.24784469604492	-410.5482788085938	103.5686874389648	93.58050537109375	-433.7072448730469	94.71718597412109	-10.58791065216064	-521.5519409179688	229.3710784912109	60.84452819824219	-120.7566146850586	469.6250915527344	243.7888336181641	-123.3132171630859	731.4683227539062	294.3787231445312	-195.71630859375	52.05905532836914	201.6451110839844	-114.8675765991211	342.0201416015625	220.2342529296875	-28.89116477966309	36.34039306640625	112.0083999633789	-108.737190246582	42.15525054931641	94.10260772705078	-114.0596771240234	41.40840530395508	195.6148223876953	-275.8343811035156	46.54245758056641	160.8033599853516	-282.6919250488281	931.286376953125	-35.64199829101562	-225.9344177246094	958.1724243164062	318.2956848144531	nan	nan	nan	
